<?xml version="1.0" encoding="UTF-8" standalone="no"?>
<!-- Created with Inkscape (http://www.inkscape.org/) -->

<svg
   xmlns:dc="http://purl.org/dc/elements/1.1/"
   xmlns:cc="http://creativecommons.org/ns#"
   xmlns:rdf="http://www.w3.org/1999/02/22-rdf-syntax-ns#"
   xmlns:svg="http://www.w3.org/2000/svg"
   xmlns="http://www.w3.org/2000/svg"
   xmlns:xlink="http://www.w3.org/1999/xlink"
   xmlns:sodipodi="http://sodipodi.sourceforge.net/DTD/sodipodi-0.dtd"
   xmlns:inkscape="http://www.inkscape.org/namespaces/inkscape"
   width="613.59753"
   height="173.84375"
   id="svg2"
   version="1.1"
   inkscape:version="0.48.4 r9939"
   sodipodi:docname="tublr2.svg"
   inkscape:export-filename="/home/bjoern/tublr2.png"
   inkscape:export-xdpi="130.05"
   inkscape:export-ydpi="130.05">
  <defs
     id="defs4" />
  <sodipodi:namedview
     id="base"
     pagecolor="#ffffff"
     bordercolor="#666666"
     borderopacity="1.0"
     inkscape:pageopacity="0"
     inkscape:pageshadow="2"
     inkscape:zoom="0.98994949"
     inkscape:cx="113.65203"
     inkscape:cy="91.154332"
     inkscape:document-units="px"
     inkscape:current-layer="layer5"
     showgrid="false"
     fit-margin-top="20"
     fit-margin-bottom="20"
     fit-margin-left="20"
     fit-margin-right="20"
     inkscape:window-width="1920"
     inkscape:window-height="1153"
     inkscape:window-x="1437"
     inkscape:window-y="-3"
     inkscape:window-maximized="1" />
  <metadata
     id="metadata7">
    <rdf:RDF>
      <cc:Work
         rdf:about="">
        <dc:format>image/svg+xml</dc:format>
        <dc:type
           rdf:resource="http://purl.org/dc/dcmitype/StillImage" />
        <dc:title></dc:title>
      </cc:Work>
    </rdf:RDF>
  </metadata>
  <g
     inkscape:groupmode="layer"
     id="layer5"
     inkscape:label="Layer Bottom"
     transform="translate(-109.65896,-147.2867)" />
  <g
     inkscape:label="Layer 1"
     inkscape:groupmode="layer"
     id="layer1"
     transform="translate(-99.277485,-175.34375)">
    <path
       sodipodi:type="inkscape:offset"
       inkscape:radius="18.182745"
       inkscape:original="M 139.6875 213.53125 L 137.46875 249.40625 L 145.3125 249.40625 C 147.23625 239.60497 149.29222 234.44824 152.84375 229.8125 C 157.57912 223.45491 163.22415 220.40625 170.03125 220.40625 C 174.47066 220.40625 175.34375 221.34046 175.34375 225.84375 L 175.34375 290.0625 C 175.34375 298.40683 175.34836 298.9404 174.3125 300 C 172.98068 301.45695 169.87421 302 162.03125 302 L 158.78125 302 L 158.78125 309.15625 L 218.5625 309.15625 L 218.5625 302 L 215.3125 302 C 207.46954 302 204.36307 301.45695 203.03125 300 C 201.99539 298.9404 202 298.40683 202 290.0625 L 202 225.84375 C 202 221.34046 202.87309 220.40625 207.3125 220.40625 C 213.67566 220.40625 218.54588 222.78831 223.28125 228.21875 C 227.4247 233.11939 229.81154 238.67782 232.03125 249.40625 L 239.875 249.40625 L 237.65625 213.53125 L 139.6875 213.53125 z M 473.21875 218.5 L 440.21875 220.34375 L 440.21875 226.625 L 442.84375 226.625 C 451.22578 226.625 451.625 227.11648 451.625 238.0625 L 451.625 283.8125 C 451.625 295.74243 451.09285 304.1106 449.71875 310.875 L 456.4375 310.875 L 465.375 301.03125 C 471.83329 308.04162 478.85047 311 489.15625 311 C 510.04263 311 524.3125 297.94031 524.3125 279 C 524.3125 261.53556 511.95112 249.125 494.5 249.125 C 485.2935 249.125 478.85258 251.94832 473.21875 258.34375 L 473.21875 218.5 z M 562.375 218.5 L 529.40625 220.34375 L 529.40625 226.625 L 532.03125 226.625 C 540.41328 226.625 540.8125 227.11648 540.8125 238.0625 L 540.8125 291.4375 L 540.8125 297.21875 C 540.8125 302.13831 539.30667 302.875 530.375 302.875 L 529.8125 302.875 L 529.8125 309.15625 L 572.6875 309.15625 L 572.6875 302.875 L 571.75 302.875 C 569.1392 302.875 565.39937 302.49196 564.4375 302 C 562.78858 301.26207 562.375 300.29348 562.375 297.21875 L 562.375 291.4375 L 562.375 218.5 z M 241.96875 227.1875 L 241.96875 233.3125 L 243.875 233.3125 C 250.4707 233.3125 253.13969 233.75119 254.28125 235 C 255.16913 235.90823 255.15625 236.37897 255.15625 243.53125 L 255.15625 279.5 C 255.15625 289.03638 256.05878 293.80776 258.46875 297.78125 C 263.6692 306.29587 275.95926 310.84375 293.84375 310.84375 C 310.07932 310.84375 319.84732 306.99168 326.0625 298.25 C 329.61403 293.14123 330.625 288.02134 330.625 274.625 L 330.625 251.8125 C 330.625 241.82201 331.27385 238.87262 333.9375 236.375 C 335.96695 234.44502 339.52014 233.42603 344.59375 233.3125 L 344.59375 227.1875 L 308.4375 227.1875 L 308.4375 233.3125 C 313.38427 233.42603 316.8143 234.44502 318.84375 236.375 C 321.5074 238.87262 322.125 241.70848 322.125 251.8125 L 322.125 274.625 C 322.125 283.93432 321.61767 288.38371 319.96875 291.5625 C 316.29038 298.71478 308.934 302.34375 298.40625 302.34375 C 291.17635 302.34375 285.73903 300.41416 282.1875 296.78125 C 279.39701 293.71599 278 288.13132 278 279.84375 L 278 243.53125 C 278 236.37897 277.98712 235.90823 278.875 235 C 280.01656 233.75119 282.81055 233.3125 289.40625 233.3125 L 291.3125 233.3125 L 291.3125 227.1875 L 241.96875 227.1875 z M 345.90625 227.1875 L 345.90625 233.3125 L 347.8125 233.3125 C 354.4082 233.3125 357.04594 233.77097 358.1875 234.90625 C 359.07538 235.928 359.09375 236.26544 359.09375 243.53125 L 359.09375 292.8125 C 359.09375 299.96478 359.07538 300.40427 358.1875 301.3125 C 357.04594 302.56131 354.4082 303 347.8125 303 L 345.90625 303 L 345.90625 309.15625 L 397.28125 309.15625 C 410.47265 309.15625 417.18739 308.24762 423.65625 305.75 C 431.77403 302.45768 437.09375 295.2939 437.09375 287.6875 C 437.09375 279.74052 432.01119 273.27768 422.625 269.53125 C 418.31243 267.7148 414.5332 266.7947 407.9375 266 C 414.15268 265.09177 417.69847 264.28837 421.25 262.8125 C 428.86042 259.52018 432.90625 254.09295 432.90625 247.28125 C 432.90625 240.81014 429.09018 234.78401 422.875 231.71875 C 415.89878 228.08584 409.93775 227.1875 394.84375 227.1875 L 345.90625 227.1875 z M 389.03125 233.3125 L 392.8125 233.3125 C 403.97445 233.3125 409.9375 238.2959 409.9375 247.71875 C 409.9375 253.28164 407.80889 257.72429 403.75 260.5625 C 400.32531 263.06012 395.9891 263.96875 388.125 263.96875 L 381.90625 263.96875 L 381.90625 239.90625 C 381.90625 236.61393 382.1691 235.68948 383.4375 234.78125 C 384.7059 233.7595 386.62128 233.3125 389.03125 233.3125 z M 629.34375 249.125 C 618.76315 249.125 611.47802 254.52876 606.53125 265.84375 L 606.53125 250.96875 L 575.875 251.84375 L 575.875 258.09375 L 577.9375 258.09375 C 586.31953 258.09375 586.75 258.59327 586.75 270.03125 L 586.75 291.4375 L 586.75 297.09375 C 586.75 302.1363 585.23176 302.875 576.4375 302.875 L 575.875 302.875 L 575.875 309.15625 L 621.78125 309.15625 L 621.78125 302.875 L 618.75 302.875 C 609.95574 302.875 608.4375 302.1363 608.4375 297.09375 L 608.4375 291.4375 L 608.4375 288.96875 C 608.4375 280.35952 610.78349 270.66152 614.21875 265.25 C 617.10437 260.69941 619.9843 258.47989 624.65625 257.25 C 622.86992 259.4638 622.3125 260.81745 622.3125 263.03125 C 622.3125 268.31978 626.71635 272.125 632.625 272.125 C 639.35811 272.125 644.4375 267.58896 644.4375 261.5625 C 644.4375 254.42914 638.13801 249.125 629.34375 249.125 z M 487.625 258.34375 C 496.28185 258.34375 500.5625 265.74132 500.5625 280.5 C 500.5625 296.36558 495.86917 304.59375 486.9375 304.59375 C 477.86841 304.59375 473.0625 296.96026 473.0625 283.0625 C 473.0625 266.70496 478.00627 258.34375 487.625 258.34375 z M 381.90625 270.21875 L 390.65625 270.21875 C 398.64719 270.21875 402.35472 270.89399 405.90625 272.9375 C 410.21882 275.54865 412.875 280.53403 412.875 286.4375 C 412.875 291.88686 410.58462 296.90032 406.90625 299.625 C 403.73524 302.00909 399.55709 303 393.46875 303 L 389.65625 303 C 385.21684 303 383.07354 302.3394 382.3125 300.75 C 381.93198 299.84177 381.90625 299.49643 381.90625 295.75 L 381.90625 270.21875 z M 661.78125 287.875 C 654.63591 287.875 648.875 293.04207 648.875 299.4375 C 648.875 305.70994 654.64832 311 661.65625 311 C 668.939 311 674.6875 305.83293 674.6875 299.4375 C 674.6875 293.04207 668.92659 287.875 661.78125 287.875 z "
       xlink:href="#text2985"
       style="font-size:96.91456604px;font-style:normal;font-variant:normal;font-weight:bold;font-stretch:normal;line-height:125%;letter-spacing:-2px;word-spacing:0px;fill:#44546b;fill-opacity:1;stroke:none;font-family:Century Schoolbook L;-inkscape-font-specification:Century Schoolbook L Bold"
       id="path3812"
       inkscape:href="#text2985"
       d="m 139.6875,195.34375 a 18.184563,18.184563 0 0 0 -18.15625,17.0625 l -2.21875,35.875 a 18.184563,18.184563 0 0 0 18.15625,19.3125 l 7.84375,0 a 18.184563,18.184563 0 0 0 11.84375,-4.40625 l 0,20.71875 A 18.184563,18.184563 0 0 0 140.59375,302 l 0,7.15625 a 18.184563,18.184563 0 0 0 18.1875,18.1875 l 59.78125,0 a 18.184563,18.184563 0 0 0 18.1875,-18.1875 l 0,-7.15625 a 18.184563,18.184563 0 0 0 -16.5625,-18.09375 l 0,-20.71875 a 18.184563,18.184563 0 0 0 11.84375,4.40625 l 4.9375,0 0,11.90625 c 0,10.6836 1.25561,19.94785 5.96875,27.71875 a 18.184563,18.184563 0 0 0 0,0.0312 c 10.34141,16.93183 29.93928,21.78125 50.90625,21.78125 13.67396,0 26.69858,-3.24064 36.6875,-10.1875 a 18.184563,18.184563 0 0 0 15.375,8.5 l 51.375,0 c 14.02636,0 23.90686,-1.13828 32.9375,-4.625 a 18.184563,18.184563 0 0 0 0.28125,-0.125 c 1.35893,-0.55114 2.64769,-1.22067 3.9375,-1.90625 a 18.184563,18.184563 0 0 0 15.28125,8.375 l 6.71875,0 a 18.184563,18.184563 0 0 0 11.78125,-4.34375 c 6.58957,2.88646 13.81769,4.46875 20.9375,4.46875 10.06845,0 19.70094,-2.41937 28.03125,-6.96875 a 18.184563,18.184563 0 0 0 12.625,5.125 l 42.875,0 a 18.184563,18.184563 0 0 0 1.6875,-0.0937 18.184563,18.184563 0 0 0 1.5,0.0937 l 45.90625,0 A 18.184563,18.184563 0 0 0 637.625,318.0625 c 5.83691,6.88125 14.65911,11.125 24.03125,11.125 15.88312,0 31.21875,-12.45892 31.21875,-29.75 0,-17.3146 -15.18265,-29.75 -31.09375,-29.75 -0.22099,0 -0.43558,0.0577 -0.65625,0.0625 0.86602,-2.59888 1.5,-5.30376 1.5,-8.1875 0,-8.91909 -4.44148,-17.56553 -10.84375,-22.875 -6.40227,-5.30947 -14.38481,-7.75 -22.4375,-7.75 -5.29013,0 -10.47675,1.31818 -15.34375,3.46875 a 18.184563,18.184563 0 0 0 -8,-1.625 l -25.4375,0.71875 0,-15 A 18.184563,18.184563 0 0 0 561.375,200.34375 l -32.96875,1.84375 a 18.184563,18.184563 0 0 0 -17.1875,18.15625 l 0,6.28125 a 18.184563,18.184563 0 0 0 2,8.28125 c -5.78426,-2.53407 -12.11269,-3.96875 -18.71875,-3.96875 -1.02538,0 -2.06303,0.11526 -3.09375,0.1875 l 0,-12.625 a 18.184563,18.184563 0 0 0 -19.1875,-18.15625 l -33,1.84375 a 18.184563,18.184563 0 0 0 -15.375,10.3125 c -7.9269,-2.59302 -17.07114,-3.5 -29,-3.5 l -48.9375,0 a 18.184563,18.184563 0 0 0 -0.625,0.0312 18.184563,18.184563 0 0 0 -0.6875,-0.0312 l -36.15625,0 A 18.184563,18.184563 0 0 0 299.875,211.15625 18.184563,18.184563 0 0 0 291.3125,209 l -36.0625,0 a 18.184563,18.184563 0 0 0 -17.59375,-13.65625 l -97.96875,0 z m 68.53125,43 c 0.003,0.004 0.0893,0.14745 0.0937,0.15625 -0.3496,-0.003 -1.23209,0.0937 -1,0.0937 0.91267,0 0.86925,-0.29984 0.90625,-0.25 z m 91.65625,11 a 18.184563,18.184563 0 0 0 4.03125,1.5625 c 0.01,0.54513 0.0312,0.28066 0.0312,0.90625 l 0,22.8125 c 0,8.42035 -0.85465,10.04093 -0.125,8.625 -0.31301,0.60862 0.94304,0.90625 -5.40625,0.90625 -1.11039,0 -1.32132,-0.11441 -1.875,-0.1875 -0.18156,-0.99939 -0.34375,-2.2927 -0.34375,-4.125 l 0,-29.03125 a 18.184563,18.184563 0 0 0 3.6875,-1.46875 z"
       inkscape:export-filename="/home/bjoern/tublr2.png"
       inkscape:export-xdpi="130.05"
       inkscape:export-ydpi="130.05" />
    <text
       xml:space="preserve"
       style="font-size:96.91456604px;font-style:normal;font-variant:normal;font-weight:bold;font-stretch:normal;line-height:125%;letter-spacing:-2px;word-spacing:0px;fill:#edf0f4;fill-opacity:1;stroke:none;font-family:Century Schoolbook L;-inkscape-font-specification:Century Schoolbook L Bold"
       x="127.95286"
       y="326.76846"
       id="text2985"
       sodipodi:linespacing="125%"
       transform="scale(1.057004,0.94607022)"
       inkscape:export-filename="/home/bjoern/tublr2.png"
       inkscape:export-xdpi="130.05"
       inkscape:export-ydpi="130.05"><tspan
         sodipodi:role="line"
         id="tspan2987"
         x="127.95286"
         y="326.76846"
         style="font-size:116.29747772px;font-style:normal;font-variant:normal;font-weight:bold;font-stretch:normal;letter-spacing:-2px;fill:#edf0f4;fill-opacity:1;font-family:Century Schoolbook L;-inkscape-font-specification:Century Schoolbook L Bold"><tspan
           style="font-size:140px;letter-spacing:-2px"
           id="tspan3798">T</tspan><tspan
           style="font-size:120px;font-style:normal;font-variant:normal;font-weight:bold;font-stretch:normal;font-family:Century Schoolbook L;-inkscape-font-specification:Century Schoolbook L Bold"
           id="tspan3804">U</tspan><tspan
           style="font-size:120px"
           id="tspan3808">B</tspan><tspan
           style="font-size:130px;letter-spacing:-2px"
           id="tspan3802">blr.</tspan></tspan></text>
  </g>
  <g
     inkscape:groupmode="layer"
     id="layer4"
     inkscape:label="Layer top"
     transform="translate(-109.65896,-147.2867)">
    <rect
       style="fill:#44546b;fill-opacity:1"
       id="rect3815"
       width="16.162441"
       height="41.416256"
       x="300.01532"
       y="217.06911" />
    <rect
       style="fill:#44546b;fill-opacity:1"
       id="rect3817"
       width="33.335033"
       height="32.324883"
       x="224.25386"
       y="232.22139" />
    <rect
       style="fill:#44546b;fill-opacity:1"
       id="rect3819"
       width="19.192898"
       height="12.121831"
       x="238.396"
       y="260.50568" />
  </g>
</svg>
